<svg width="280" height="280" viewBox="0 0 280 280" fill="none" xmlns="http://www.w3.org/2000/svg">
    <rect width="280" height="280" rx="80" fill="#FFD426"/>
    <path d="M238 56C244.627 56 250 61.3726 250 68V212C250 218.627 244.627 224 238 224H144.322L86.6074 251.843C82.6237 253.765 78.0002 250.863 78 246.439V224H62C55.3726 224 50 218.627 50 212V68C50 61.3726 55.3726 56 62 56H238Z" fill="#A25915"/>
    <path d="M228 46C234.627 46 240 51.3726 240 58V202C240 208.627 234.627 214 228 214H134.322L76.6074 241.843C72.6237 243.765 68.0002 240.863 68 236.439V214H52C45.3726 214 40 208.627 40 202V58C40 51.3726 45.3726 46 52 46H228Z" fill="white"/>
    <rect x="200.453" y="125.898" width="24" height="20" rx="4" transform="rotate(25 200.453 125.898)" fill="#8944AB"/>
    <rect x="175" y="76.6641" width="24" height="20" rx="4" transform="rotate(-55 175 76.6641)" fill="#8944AB"/>
    <rect x="192" y="98.5781" width="24" height="20" rx="4" transform="rotate(-20 192 98.5781)" fill="#8944AB"/>
    <path fill-rule="evenodd" clip-rule="evenodd" d="M149.292 71.9709C153.574 68.613 159.886 70.4165 161.747 75.5293L188.451 148.897C190.297 153.971 186.69 159.38 181.296 159.625L113.225 162.713C113.109 162.718 112.994 162.726 112.878 162.736L121.68 186.918C122.435 188.993 121.365 191.289 119.289 192.044L108.013 196.149C105.937 196.904 103.641 195.834 102.886 193.758L93.075 166.803L84.0275 168.688C80.1356 169.498 76.2393 167.328 74.8795 163.593L65.1243 136.79C63.6744 132.807 65.5834 128.383 69.4769 126.706L90.7703 117.536C91.404 117.263 91.9993 116.909 92.5422 116.483L149.292 71.9709Z" fill="#8944AB"/>
</svg>
