<svg width="280" height="280" viewBox="0 0 280 280" fill="none" xmlns="http://www.w3.org/2000/svg">
    <rect width="280" height="280" rx="80" fill="#CBCED1"/>
    <rect x="66" y="50" width="184" height="200" rx="12" fill="#676B71"/>
    <rect x="40" y="40" width="200" height="200" rx="12" fill="white"/>
    <path fill-rule="evenodd" clip-rule="evenodd" d="M214.739 71.1972C219.602 73.8155 221.421 79.88 218.803 84.7426L203.092 113.91C213.488 123.503 219.999 137.242 219.999 152.503V185.001C219.999 198.807 208.807 210 195 210H85.0027C71.1959 210 60.0033 198.807 60.0033 185.001L60.0019 152.503C60.0019 137.244 66.5114 123.506 76.9049 113.914L61.1972 84.7426C58.5789 79.88 60.3982 73.8155 65.2608 71.1972C70.1234 68.5789 76.1879 70.3982 78.8062 75.2608L93.9457 103.377C99.7147 101.197 105.968 100.004 112.501 100.004H167.499C174.031 100.004 180.284 101.197 186.052 103.376L201.194 75.2608C203.812 70.3982 209.877 68.5789 214.739 71.1972ZM167.499 120.004H112.501C94.5518 120.004 80.0015 134.554 80.0015 152.503L80.0028 185C80.0028 187.761 82.2413 190 85.0027 190H195C197.761 190 200 187.761 200 185L199.999 152.503C199.999 134.554 185.448 120.004 167.499 120.004ZM105.001 145.004C110.523 145.004 115.001 149.481 115.001 155.004C115.001 160.526 110.523 165.003 105.001 165.003C99.4785 165.003 95.0011 160.526 95.0011 155.004C95.0011 149.481 99.4785 145.004 105.001 145.004ZM140 145.004C145.522 145.004 150 149.481 150 155.004C150 160.526 145.522 165.003 140 165.003C134.478 165.003 130 160.526 130 155.004C130 149.481 134.478 145.004 140 145.004ZM174.999 145.004C180.522 145.004 184.999 149.481 184.999 155.004C184.999 160.526 180.522 165.003 174.999 165.003C169.477 165.003 164.999 160.526 164.999 155.004C164.999 149.481 169.477 145.004 174.999 145.004Z" fill="black"/>
</svg>
