<svg width="160" height="160" viewBox="0 0 160 160" fill="none" xmlns="http://www.w3.org/2000/svg">
    <path d="M73.0566 99.5915C61.455 98.1881 53.2812 89.8553 53.2812 79.0668C53.2812 74.6812 54.8633 69.9447 57.5 66.7871C56.3574 63.8925 56.5332 57.7526 57.8516 55.209C61.3672 54.7704 66.1133 56.6124 68.9258 59.156C72.2656 58.1035 75.7813 57.5772 80.0878 57.5772C84.3945 57.5772 87.9102 58.1035 91.0742 59.0684C93.7988 56.6124 98.6328 54.7704 102.148 55.209C103.379 57.5772 103.555 63.7171 102.412 66.6993C105.225 70.0324 106.719 74.5057 106.719 79.0668C106.719 89.8553 98.5449 98.0126 86.7675 99.5037C89.7558 101.433 91.7773 105.644 91.7773 110.468V119.59C91.7773 122.221 93.9746 123.712 96.6113 122.66C112.52 116.607 125 100.732 125 81.0841C125 56.2616 104.785 36 79.9121 36C55.0391 36 35 56.2615 35 81.0841C35 100.556 47.3925 116.695 64.0918 122.748C66.4648 123.624 68.75 122.046 68.75 119.678V112.661C67.5195 113.187 65.9375 113.538 64.5312 113.538C58.7305 113.538 55.3027 110.38 52.8418 104.503C51.875 102.135 50.8203 100.732 48.7988 100.469C47.7441 100.381 47.3925 99.9423 47.3925 99.416C47.3925 98.3635 49.1503 97.574 50.9082 97.574C53.457 97.574 55.6543 99.1528 57.9394 102.398C59.6972 104.942 61.543 106.082 63.7402 106.082C65.9375 106.082 67.3438 105.293 69.3652 103.275C70.8594 101.784 72.0019 100.469 73.0566 99.5915Z" fill="currentColor"/>
</svg>
