<svg width="280" height="280" viewBox="0 0 280 280" fill="none" xmlns="http://www.w3.org/2000/svg">
    <rect width="280" height="280" rx="80" fill="#FF7770"/>
    <rect x="42.2344" y="140.344" width="160" height="160" rx="12" transform="rotate(-45 42.2344 140.344)" fill="#C20013"/>
    <rect x="27" y="140" width="160" height="160" rx="12" transform="rotate(-45 27 140)" fill="white"/>
    <path d="M158.985 95.0831C162.707 98.8048 164.211 103.904 163.499 108.74L196.432 141.672C200.915 141.338 205.512 142.886 208.94 146.314C215.188 152.562 215.188 162.693 208.94 168.941C202.692 175.189 192.561 175.19 186.313 168.941C182.599 165.228 181.093 160.143 181.793 155.318L153.692 127.216L141.616 172.283C146.127 178.536 145.568 187.313 139.94 192.941C133.692 199.19 123.561 199.189 117.313 192.941C111.065 186.693 111.065 176.562 117.313 170.314C118.806 168.821 120.521 167.684 122.352 166.905L135.716 117.028C132.746 113.695 131.412 109.419 131.713 105.238L96.6889 70.2135L110.831 56.0713L145.329 90.569C150.164 89.8571 155.264 91.3613 158.985 95.0831Z" fill="black"/>
</svg>
