<svg width="280" height="280" viewBox="0 0 280 280" fill="none" xmlns="http://www.w3.org/2000/svg">
    <rect width="280" height="280" rx="80" fill="#54A6FF"/>
    <path d="M238 56C244.627 56 250 61.3726 250 68V212C250 218.627 244.627 224 238 224H143.107L83.6074 252.704C79.6237 254.626 75.0002 251.724 75 247.301V224H62C55.3726 224 50 218.627 50 212V68C50 61.3726 55.3726 56 62 56H238Z" fill="#0667C8"/>
    <path d="M228 46C234.627 46 240 51.3726 240 58V202C240 208.627 234.627 214 228 214H133.107L73.6074 242.704C69.6237 244.626 65.0002 241.724 65 237.301V214H52C45.3726 214 40 208.627 40 202V58C40 51.3726 45.3726 46 52 46H228Z" fill="white"/>
    <rect x="60" y="66" width="40" height="128" rx="8" fill="#1D8337"/>
    <rect x="120" y="138" width="40" height="56" rx="8" fill="#1D8337"/>
    <rect x="180" y="90" width="40" height="104" rx="8" fill="#1D8337"/>
</svg>
