<svg width="160" height="160" viewBox="0 0 160 160" fill="none" xmlns="http://www.w3.org/2000/svg">
    <path d="M45.9786 35.0502C44.0849 35.1074 43.6069 35.1456 42.991 35.3268C40.9778 35.8897 39.6632 36.6625 38.1831 38.1412C36.556 39.7726 35.6184 41.6329 35.1679 44.161C35.0024 45.0769 34.9932 46.174 35.0024 72.7815C35.0116 90.9745 35.0484 101.135 35.1128 102.451C35.2047 104.321 35.2323 104.512 35.508 105.313C36.6663 108.729 39.1484 111.352 42.3751 112.554C42.7887 112.707 43.4047 112.831 44.0298 112.898C44.5721 112.945 48.5342 113.031 52.8273 113.089C59.7127 113.174 61.6064 113.222 61.6064 113.327C61.6064 113.346 60.8526 114.939 59.9241 116.876C59.0048 118.803 58.1131 120.749 57.9385 121.188C57.5891 122.114 57.5983 122.314 57.9844 123.201C58.4992 124.394 59.9149 125.243 60.8802 124.937C63.1967 124.212 70.4682 121.732 81.4169 117.935L94.8383 113.27L102.652 113.174C112.01 113.069 116.11 112.955 116.947 112.764C120.799 111.887 124.402 107.746 124.88 103.653C125.046 102.28 125.037 46.9086 124.871 44.9338C124.733 43.1784 124.595 42.5487 124.127 41.4993C123.033 39.038 121.258 37.1776 118.923 36.0042C117.784 35.4413 117.076 35.2219 116.028 35.1265C114.897 35.0216 49.4167 34.9452 45.9786 35.0502ZM114.272 41.0605C115.899 41.1368 115.982 41.1559 116.543 41.4421C117.397 41.8714 118.638 43.1211 118.822 43.7126C119.254 45.1627 119.273 45.9927 119.254 75.634L119.236 103.195L118.997 103.682C118.317 105.075 117.333 106.248 116.533 106.611C115.688 107.002 115.412 107.011 104.858 107.05L94.6545 107.088L83.5772 110.904C70.7348 115.331 66.5613 116.742 66.5061 116.685C66.4878 116.657 67.0485 115.445 67.7564 113.976C68.4642 112.516 69.1077 111.057 69.1904 110.742C69.4478 109.721 69.1629 108.624 68.4458 107.937C68.0046 107.517 67.7472 107.384 67.1221 107.25C66.8922 107.202 61.8454 107.126 55.9069 107.088C44.4894 107.002 44.2136 106.983 43.3955 106.554C42.5865 106.115 41.8603 105.275 41.1892 103.987L40.8031 103.243L40.7939 75.1283C40.7847 45.9546 40.7939 45.1914 41.1524 43.9511C41.2168 43.7222 41.373 43.3883 41.4834 43.2261C41.8327 42.7109 42.945 41.7283 43.5334 41.423C44.0849 41.1368 44.1309 41.1273 45.7948 41.0605C48.3596 40.9651 112.323 40.9555 114.272 41.0605Z" fill="currentColor" stroke="currentColor" stroke-width="0.133333"/>
    <path d="M72.5733 47.4428C71.176 48.0152 69.2914 49.1028 67.9033 50.1522C65.4397 51.9935 62.8565 54.741 61.4592 56.983C61.2661 57.2978 61.0731 57.5649 61.0455 57.5649C61.0087 57.5649 60.4755 57.107 59.8504 56.5537C57.9475 54.8555 57.4971 54.6933 56.7708 55.3898C56.2561 55.8858 56.1457 56.1339 56.2744 56.5918C56.4215 57.1738 58.1038 59.368 59.7493 61.1329C60.9536 62.4304 61.3489 62.6212 62.1119 62.2873C62.5347 62.106 62.8841 61.7053 63.5092 60.6655C64.3365 59.3012 65.4488 57.5745 66.0096 56.8017C67.7379 54.4071 70.2935 51.6691 72.4078 49.9328C74.4026 48.3014 74.6968 47.8817 74.1728 47.376C73.8786 47.0898 73.3914 47.1089 72.5733 47.4428Z" fill="currentColor" stroke="currentColor" stroke-width="0.133333"/>
    <path d="M52.4964 47.9294C50.5475 47.9866 50.3912 48.0057 49.9683 48.2251C49.3432 48.54 49.2145 48.8548 49.1042 50.324C48.9939 51.755 48.9939 66.0747 49.095 67.5058C49.1961 68.87 49.3984 69.2707 50.1154 69.5378C50.6026 69.7191 50.906 69.7286 58.8302 69.7572C67.6093 69.7859 68.7308 69.7477 69.2916 69.3852C70.073 68.8891 70.1557 68.04 70.1557 60.5224V55.4184L69.5122 56.1339C68.7676 56.9734 67.7748 58.2804 66.9107 59.5874L66.2947 60.5128V63.1459V65.7695H59.584H52.8733V58.8051V51.8408H57.7454H62.6084L62.8199 51.5451C63.0773 51.173 64.3551 49.9996 65.734 48.8452L66.7728 47.9771L65.5961 47.9198C64.0793 47.834 55.2082 47.8435 52.4964 47.9294Z" fill="currentColor" stroke="currentColor" stroke-width="0.133333"/>
    <path d="M78.0891 52.0221C77.3445 52.7758 77.2158 53.8156 77.749 54.6265C78.2362 55.3516 78.2913 55.3611 82.6211 55.4756C86.8866 55.5996 104.739 55.5233 106.817 55.3802C107.975 55.3039 108.058 55.2848 108.379 55.0177C108.83 54.6361 109.06 54.1495 109.06 53.5294C109.069 52.9093 108.968 52.6994 108.37 52.0507L107.901 51.5546H93.2204H78.5487L78.0891 52.0221Z" fill="currentColor" stroke="currentColor" stroke-width="0.133333"/>
    <path d="M78.135 60.7418C77.3629 61.5145 77.2066 62.5925 77.749 63.3939C78.1994 64.0713 78.4476 64.138 81.2422 64.2525C83.9633 64.367 94.0754 64.3002 95.2796 64.1571C96.1345 64.0617 96.6218 63.7564 96.9067 63.1554C97.109 62.7166 97.1458 62.0297 96.9987 61.6194C96.9527 61.4859 96.6953 61.1329 96.4379 60.8467L95.9599 60.3315H87.2543H78.5579L78.135 60.7418Z" fill="currentColor" stroke="currentColor" stroke-width="0.133333"/>
    <path d="M49.6282 78.5914L49.095 79.0875L49.0767 88.4368C49.0583 98.3586 49.0767 98.7497 49.4903 99.303C49.8305 99.7514 50.3453 99.8278 54.0224 99.9327C57.5156 100.047 66.1201 99.9804 67.9495 99.8373C69.1813 99.7419 69.6042 99.5416 69.8248 98.9501C70.1098 98.2346 70.1649 95.6873 70.1006 87.1394L70.0362 79.0779L69.5214 78.5819L69.0066 78.0858H59.584H50.1614L49.6282 78.5914ZM66.2948 88.9997V95.9163H59.584H52.8733V88.9997V82.0831H59.584H66.2948V88.9997Z" fill="currentColor" stroke="currentColor" stroke-width="0.133333"/>
    <path d="M80.084 81.6061C78.7326 81.6633 78.5304 81.7206 78.0156 82.1976C77.5835 82.5792 77.418 82.9799 77.418 83.6095C77.418 84.2105 77.5008 84.3823 78.0891 85.0119L78.558 85.5175L91.3911 85.508C104.923 85.508 107.929 85.4508 108.287 85.2218C108.71 84.9547 108.986 84.3918 109.023 83.7431C109.041 83.4092 109.041 83.0276 109.004 82.9035C108.922 82.5601 108.517 82.1022 108.085 81.8637C107.727 81.6633 107.57 81.6538 103.893 81.5965C99.3888 81.5202 81.8765 81.5202 80.084 81.6061Z" fill="currentColor" stroke="currentColor" stroke-width="0.133333"/>
    <path d="M80.084 90.3735C78.7326 90.4403 78.5304 90.4975 78.0156 90.9745C77.5835 91.3657 77.418 91.7568 77.418 92.4151C77.418 92.9779 77.6203 93.35 78.273 93.9892L78.5947 94.3136L87.1256 94.2754C93.2297 94.2468 95.7577 94.1991 95.9783 94.1228C97.2377 93.6839 97.4859 91.4324 96.3552 90.736C95.7944 90.3926 95.2521 90.3639 88.2196 90.3353C84.4321 90.3258 80.7642 90.3449 80.084 90.3735Z" fill="currentColor" stroke="currentColor" stroke-width="0.133333"/>
</svg>
