<svg width="280" height="280" viewBox="0 0 280 280" fill="none" xmlns="http://www.w3.org/2000/svg">
    <rect width="280" height="280" rx="80" fill="#FF7770"/>
    <rect x="58" y="50" width="184" height="200" rx="12" fill="#C20013"/>
    <rect x="48" y="40" width="184" height="200" rx="12" fill="white"/>
    <circle cx="74" cy="66" r="10" fill="#A25915"/>
    <circle cx="74" cy="102" r="10" fill="#A25915"/>
    <rect x="92" y="56" width="124" height="20" rx="8" fill="#A25915"/>
    <rect x="92" y="92" width="108" height="20" rx="8" fill="#A25915"/>
    <path fill-rule="evenodd" clip-rule="evenodd" d="M140 136C151.219 136 160.477 143.752 162 153.769C162 153.769 165.178 170.53 167.5 177.235C169.451 182.871 173.849 191.988 173.849 191.988C176.389 197.494 173.561 202 167.468 202H112.532C106.434 202 103.558 197.509 106.097 191.97C106.097 191.97 110.561 182.473 112.5 177.235C115.045 170.359 118.17 153.769 118.17 153.769C119.524 143.752 128.781 136 140 136ZM151 213C151 219.075 146.075 224 140 224C133.925 224 129 219.075 129 213H151Z" fill="#A25915"/>
</svg>
