<svg width="130" height="130" viewBox="0 0 130 130" fill="none" xmlns="http://www.w3.org/2000/svg">
<path fill-rule="evenodd" clip-rule="evenodd" d="M75.3239 86.9229C84.52 86.9032 91.9514 79.4226 91.9514 70.1899V43.8699H88.7749V70.1702C88.7945 73.1034 87.8534 75.9382 86.1279 78.2808C81.6965 84.2653 73.2651 85.5055 67.3043 81.0565C69.8926 78.0249 71.3239 74.1665 71.3043 70.1702V48.6536C71.2455 45.2283 68.4808 42.4526 65.069 42.3935C61.5592 42.3344 58.6573 45.1298 58.5985 48.6536V70.1702C58.6181 74.1665 60.069 78.0446 62.6965 81.0565C60.3828 82.7692 57.5789 83.7141 54.6965 83.7141C47.2259 83.7338 41.1475 77.6705 41.1279 70.1702V43.8699H37.9514V70.2096C37.9514 79.4423 45.5004 86.9426 54.6965 86.9426C58.4612 86.9426 62.1083 85.663 65.0494 83.3204C67.971 85.663 71.5985 86.9229 75.3239 86.9229ZM64.9514 45.4645C66.7161 45.4645 68.1279 46.9016 68.1279 48.6536V70.1702C68.1279 73.3593 67.0102 76.45 64.9514 78.8911C62.9122 76.45 61.7749 73.3593 61.7749 70.1702V48.6536C61.7749 46.8819 63.2063 45.4645 64.9514 45.4645Z" fill="currentColor"/>
</svg>
