<svg width="130" height="130" viewBox="0 0 130 130" fill="none" xmlns="http://www.w3.org/2000/svg">
    <path fill-rule="evenodd" clip-rule="evenodd" d="M80.7508 98.9699C94.7153 98.9399 106 87.5217 106 73.4291V33.2549H101.176V73.399C101.206 77.8762 99.7771 82.2032 97.1569 85.7789C90.4277 94.9134 77.6245 96.8065 68.5729 90.0156C72.5033 85.3883 74.6768 79.4989 74.647 73.399V40.5567C74.5577 35.3284 70.3595 31.0916 65.1786 31.0014C59.8489 30.9112 55.4423 35.178 55.353 40.5567V73.399C55.3828 79.4989 57.586 85.4183 61.5759 90.0156C58.0625 92.6298 53.8047 94.0721 49.4277 94.0721C38.0835 94.1022 28.8533 84.8473 28.8236 73.399V33.2549H24V73.4592C24 87.5517 35.4633 99 49.4277 99C55.1445 99 60.6827 97.0469 65.1488 93.4712C69.5853 97.0469 75.0937 98.9699 80.7508 98.9699ZM65 35.6889C67.6797 35.6889 69.8236 37.8824 69.8236 40.5567V73.399C69.8236 78.2668 68.1263 82.9844 65 86.7104C61.9034 82.9844 60.1764 78.2668 60.1764 73.399V40.5567C60.1764 37.8524 62.35 35.6889 65 35.6889Z" fill="currentColor"/>
</svg>
